<?xml version="1.0" encoding="UTF-8" standalone="no"?>
<svg
   width="205.07812"
   height="82.570732"
   version="1.1"
   id="svg5"
   sodipodi:docname="chorus.svg"
   inkscape:version="1.4.2 (ebf0e940d0, 2025-05-08)"
   xmlns:inkscape="http://www.inkscape.org/namespaces/inkscape"
   xmlns:sodipodi="http://sodipodi.sourceforge.net/DTD/sodipodi-0.dtd"
   xmlns="http://www.w3.org/2000/svg"
   xmlns:svg="http://www.w3.org/2000/svg">
  <defs
     id="defs5" />
  <sodipodi:namedview
     id="namedview5"
     pagecolor="#ffffff"
     bordercolor="#000000"
     borderopacity="0.25"
     inkscape:showpageshadow="2"
     inkscape:pageopacity="0.0"
     inkscape:pagecheckerboard="0"
     inkscape:deskcolor="#d1d1d1"
     inkscape:zoom="2.7073775"
     inkscape:cx="-23.08507"
     inkscape:cy="42.66121"
     inkscape:window-width="2344"
     inkscape:window-height="1323"
     inkscape:window-x="0"
     inkscape:window-y="0"
     inkscape:window-maximized="1"
     inkscape:current-layer="svg5" />
  <path
     d="m 20.830079,37.26562 q 7.822265,0 10.86914,-7.85156 l 7.529297,2.8418 q -2.431641,5.97656 -7.148437,8.90625 -4.6875,2.90039 -11.25,2.90039 -9.960938,0 -15.410157,-5.625 Q 0,32.7832 0,22.64648 0,12.48047 5.244141,7.03125 10.488282,1.58203 20.449219,1.58203 q 7.265625,0 11.835938,2.92969 4.570312,2.90039 6.416015,8.55468 l -7.617187,2.08008 Q 30.117188,12.04101 27.275391,10.22461 24.462891,8.3789 20.625,8.3789 q -5.859375,0 -8.90625,3.63282 -3.017578,3.63281 -3.017578,10.63476 0,7.11914 3.105469,10.86914 3.134766,3.75 9.023438,3.75 z M 53.173833,18.10547 q 1.66992,-3.63282 4.18945,-5.27344 2.51953,-1.64063 6.00586,-1.64063 5.03906,0 7.73437,3.10547 2.69532,3.10547 2.69532,9.08203 v 20.09766 h -8.20313 V 25.72265 q 0,-8.34961 -5.6543,-8.34961 -2.98828,0 -4.83398,2.57813 -1.81641,2.54883 -1.81641,6.5625 V 43.47656 H 45.058594 V 0 h 8.232419 v 11.86523 q 0,3.19336 -0.23437,6.24024 z m 58.652337,9.49218 q 0,7.70508 -4.27734,12.09961 -4.27735,4.36524 -11.835937,4.36524 -7.41211,0 -11.63086,-4.39453 -4.21875,-4.39454 -4.21875,-12.07032 0,-7.64648 4.21875,-12.01171 4.21875,-4.39454 11.80664,-4.39454 7.763667,0 11.835937,4.24805 4.10156,4.21875 4.10156,12.1582 z m -8.61328,0 q 0,-5.65429 -1.84571,-8.20312 -1.845697,-2.54883 -5.361317,-2.54883 -7.5,0 -7.5,10.75195 0,5.30274 1.8164,8.08594 1.84571,2.75391 5.30274,2.75391 7.587887,0 7.587887,-10.83985 z m 15.14648,15.87891 V 19.21875 q 0,-2.60742 -0.0879,-4.33594 -0.0586,-1.75781 -0.14648,-3.10547 h 7.85156 q 0.0879,0.52735 0.23437,3.22266 0.14649,2.66601 0.14649,3.54492 h 0.11719 q 1.20117,-3.33984 2.13867,-4.6875 0.9375,-1.37695 2.22656,-2.02148 1.28906,-0.67383 3.22266,-0.67383 1.58203,0 2.54883,0.43945 v 6.88477 q -1.99219,-0.43946 -3.51563,-0.43946 -3.07617,0 -4.80469,2.49024 -1.69922,2.49023 -1.69922,7.38281 v 15.55664 z m 31.11328,-31.69922 v 17.7832 q 0,8.34961 5.625,8.34961 2.98828,0 4.80469,-2.54882 1.8457,-2.57813 1.8457,-6.5918 V 11.77734 h 8.23243 v 24.60938 q 0,4.04296 0.23437,7.08984 h -7.85156 q -0.35156,-4.21875 -0.35156,-6.29883 h -0.14649 q -1.64062,3.60352 -4.18945,5.24414 -2.51953,1.64063 -6.00586,1.64063 -5.03906,0 -7.73438,-3.07617 -2.69531,-3.10547 -2.69531,-9.08204 V 11.77734 Z m 55.60547,22.44141 q 0,4.59961 -3.77929,7.23633 -3.75,2.60742 -10.4004,2.60742 -6.5332,0 -10.01953,-2.05078 -3.45703,-2.08008 -4.59961,-6.44532 l 7.23633,-1.08398 q 0.61524,2.25586 2.10938,3.19336 1.52343,0.9375 5.27343,0.9375 3.45704,0 5.03907,-0.87891 1.58203,-0.8789 1.58203,-2.7539 0,-1.52344 -1.28906,-2.40235 -1.25977,-0.9082 -4.30664,-1.52344 -6.97266,-1.37695 -9.4043,-2.54882 -2.43164,-1.20118 -3.7207,-3.07618 -1.25977,-1.90429 -1.25977,-4.6582 0,-4.54101 3.48633,-7.06054 3.51562,-2.54883 9.93164,-2.54883 5.6543,0 9.08203,2.19726 3.45703,2.19727 4.30664,6.35742 l -7.29492,0.76172 q -0.35156,-1.93359 -1.72852,-2.87109 -1.37695,-0.9668 -4.36523,-0.9668 -2.92969,0 -4.39453,0.76172 -1.46485,0.73242 -1.46485,2.49024 0,1.37695 1.11328,2.19726 1.14258,0.79102 3.8086,1.31836 3.7207,0.76172 6.5918,1.58203 2.90039,0.79102 4.6289,1.9043 1.75781,1.11328 2.7832,2.87109 1.05469,1.72852 1.05469,4.45313 z"
     id="text1"
     style="font-weight:bold;font-size:60px;font-family:'Liberation Sans';fill:#000000;fill-opacity:1"
     aria-label="Chorus" />
  <path
     d="m 52.539063,66.57073 q 10,-30 20,0 10,30 20,0 9.999997,-30 19.999997,0 10,30 20,0 10,-30 20,0"
     fill="none"
     stroke="#1e90ff"
     stroke-width="2"
     id="path1"
     style="stroke:#000000;stroke-opacity:1" />
  <circle
     cx="62.539062"
     cy="66.570732"
     r="5"
     fill="#1e90ff"
     id="circle1"
     style="fill:#000000;fill-opacity:1" />
  <circle
     cx="82.539062"
     cy="66.570732"
     r="5"
     fill="#1e90ff"
     id="circle2"
     style="fill:#000000;fill-opacity:1" />
  <circle
     cx="102.53906"
     cy="66.570732"
     r="5"
     fill="#1e90ff"
     id="circle3"
     style="fill:#000000;fill-opacity:1" />
  <circle
     cx="122.53906"
     cy="66.570732"
     r="5"
     fill="#1e90ff"
     id="circle4"
     style="fill:#000000;fill-opacity:1" />
  <circle
     cx="142.53906"
     cy="66.570732"
     r="5"
     fill="#1e90ff"
     id="circle5"
     style="fill:#000000;fill-opacity:1" />
</svg>
